<svg width="255" height="72" viewBox="0 0 255 72" fill="none" xmlns="http://www.w3.org/2000/svg">
<rect width="255" height="72" rx="10" fill="#5EDDEE" fill-opacity="0.88"/>
<path d="M84.925 43.45C84.0083 43.45 83.075 43.3333 82.125 43.1C81.175 42.8833 80.3833 42.5917 79.75 42.225L79.875 38.825H80.125L80.9 40.45C81.1333 40.9167 81.3833 41.3333 81.65 41.7C81.9167 42.05 82.2833 42.325 82.75 42.525C83.0833 42.6917 83.4 42.8083 83.7 42.875C84.0167 42.925 84.3667 42.95 84.75 42.95C85.7667 42.95 86.5667 42.675 87.15 42.125C87.75 41.575 88.05 40.8667 88.05 40C88.05 39.1833 87.85 38.55 87.45 38.1C87.05 37.6333 86.4083 37.1833 85.525 36.75L84.5 36.3C83.0667 35.6667 81.9417 34.9417 81.125 34.125C80.325 33.2917 79.925 32.1917 79.925 30.825C79.925 29.8417 80.175 28.9917 80.675 28.275C81.1917 27.5583 81.9 27.0083 82.8 26.625C83.7167 26.2417 84.7833 26.05 86 26.05C86.8833 26.05 87.7167 26.1667 88.5 26.4C89.3 26.6333 89.9917 26.95 90.575 27.35L90.425 30.35H90.175L89.15 28.475C88.8667 27.8917 88.5833 27.4833 88.3 27.25C88.0167 27 87.6917 26.825 87.325 26.725C87.1083 26.6583 86.9083 26.6167 86.725 26.6C86.5417 26.5667 86.3083 26.55 86.025 26.55C85.175 26.55 84.4583 26.8 83.875 27.3C83.2917 27.7833 83 28.4417 83 29.275C83 30.125 83.225 30.8083 83.675 31.325C84.125 31.825 84.7833 32.275 85.65 32.675L86.8 33.175C88.4 33.875 89.55 34.625 90.25 35.425C90.95 36.2083 91.3 37.225 91.3 38.475C91.3 39.9417 90.7417 41.1417 89.625 42.075C88.525 42.9917 86.9583 43.45 84.925 43.45ZM92.5145 43V42.75L92.8145 42.65C93.4145 42.45 93.7145 42.0333 93.7145 41.4V28.05C93.7145 27.7 93.6561 27.4417 93.5395 27.275C93.4228 27.1083 93.1978 26.9833 92.8645 26.9L92.4895 26.8V26.55L96.8895 25.475L97.2895 25.7L97.1895 29.225V32.35C97.7728 31.8667 98.3978 31.4583 99.0645 31.125C99.7478 30.775 100.498 30.6 101.314 30.6C102.398 30.6 103.256 30.9083 103.889 31.525C104.539 32.1417 104.864 33.0917 104.864 34.375V41.425C104.864 41.7583 104.931 42.025 105.064 42.225C105.198 42.425 105.431 42.575 105.764 42.675L105.964 42.75V43H100.114V42.75L100.414 42.675C101.014 42.475 101.314 42.05 101.314 41.4V33.55C101.314 32.8833 101.198 32.425 100.964 32.175C100.748 31.925 100.356 31.8 99.7895 31.8C99.4228 31.8 99.0228 31.875 98.5895 32.025C98.1561 32.1583 97.7145 32.4 97.2645 32.75V41.45C97.2645 42.1 97.5645 42.5167 98.1645 42.7L98.3645 42.75V43H92.5145ZM113.266 43.375C112 43.375 110.9 43.1167 109.966 42.6C109.033 42.0667 108.308 41.3167 107.791 40.35C107.291 39.3833 107.041 38.25 107.041 36.95C107.041 35.65 107.308 34.525 107.841 33.575C108.391 32.625 109.133 31.8917 110.066 31.375C111.016 30.8583 112.083 30.6 113.266 30.6C114.45 30.6 115.508 30.8583 116.441 31.375C117.375 31.875 118.108 32.6 118.641 33.55C119.191 34.5 119.466 35.6333 119.466 36.95C119.466 38.2667 119.208 39.4083 118.691 40.375C118.191 41.325 117.475 42.0667 116.541 42.6C115.625 43.1167 114.533 43.375 113.266 43.375ZM113.266 42.875C113.85 42.875 114.316 42.7083 114.666 42.375C115.016 42.0417 115.266 41.45 115.416 40.6C115.583 39.75 115.666 38.55 115.666 37C115.666 35.4333 115.583 34.225 115.416 33.375C115.266 32.525 115.016 31.9333 114.666 31.6C114.316 31.2667 113.85 31.1 113.266 31.1C112.683 31.1 112.208 31.2667 111.841 31.6C111.491 31.9333 111.233 32.525 111.066 33.375C110.916 34.225 110.841 35.4333 110.841 37C110.841 38.55 110.916 39.75 111.066 40.6C111.233 41.45 111.491 42.0417 111.841 42.375C112.208 42.7083 112.683 42.875 113.266 42.875ZM120.32 48.75V48.5L120.62 48.4C121.237 48.2333 121.545 47.8333 121.545 47.2V33.6C121.545 33.2333 121.479 32.9583 121.345 32.775C121.229 32.5917 121.004 32.4667 120.67 32.4L120.32 32.325V32.075L124.57 30.625L124.82 30.875L125.045 31.65C125.595 31.3167 126.204 31.0583 126.87 30.875C127.554 30.6917 128.254 30.6 128.97 30.6C130.404 30.6 131.537 31.15 132.37 32.25C133.22 33.3333 133.645 34.8917 133.645 36.925C133.645 38.925 133.179 40.5 132.245 41.65C131.329 42.8 130.029 43.375 128.345 43.375C127.029 43.375 125.92 43.1833 125.02 42.8V47.125C125.02 47.7917 125.32 48.2083 125.92 48.375L126.395 48.5V48.75H120.32ZM127.145 42.65C127.979 42.65 128.637 42.2167 129.12 41.35C129.62 40.4833 129.87 39.0417 129.87 37.025C129.87 35.0083 129.637 33.6 129.17 32.8C128.704 31.9833 128.029 31.575 127.145 31.575C126.529 31.575 125.845 31.775 125.095 32.175V42.25C125.729 42.5167 126.412 42.65 127.145 42.65ZM134.529 48.75V48.5L134.829 48.4C135.446 48.2333 135.754 47.8333 135.754 47.2V33.6C135.754 33.2333 135.688 32.9583 135.554 32.775C135.438 32.5917 135.213 32.4667 134.879 32.4L134.529 32.325V32.075L138.779 30.625L139.029 30.875L139.254 31.65C139.804 31.3167 140.413 31.0583 141.079 30.875C141.763 30.6917 142.463 30.6 143.179 30.6C144.613 30.6 145.746 31.15 146.579 32.25C147.429 33.3333 147.854 34.8917 147.854 36.925C147.854 38.925 147.388 40.5 146.454 41.65C145.538 42.8 144.238 43.375 142.554 43.375C141.238 43.375 140.129 43.1833 139.229 42.8V47.125C139.229 47.7917 139.529 48.2083 140.129 48.375L140.604 48.5V48.75H134.529ZM141.354 42.65C142.188 42.65 142.846 42.2167 143.329 41.35C143.829 40.4833 144.079 39.0417 144.079 37.025C144.079 35.0083 143.846 33.6 143.379 32.8C142.913 31.9833 142.238 31.575 141.354 31.575C140.738 31.575 140.054 31.775 139.304 32.175V42.25C139.938 42.5167 140.621 42.65 141.354 42.65ZM151.982 29.3C151.416 29.3 150.932 29.125 150.532 28.775C150.149 28.4083 149.957 27.95 149.957 27.4C149.957 26.8333 150.149 26.375 150.532 26.025C150.932 25.675 151.416 25.5 151.982 25.5C152.549 25.5 153.024 25.675 153.407 26.025C153.791 26.375 153.982 26.8333 153.982 27.4C153.982 27.95 153.791 28.4083 153.407 28.775C153.024 29.125 152.549 29.3 151.982 29.3ZM149.032 43V42.75L149.382 42.65C149.716 42.55 149.941 42.4 150.057 42.2C150.191 42 150.257 41.7333 150.257 41.4V33.575C150.257 33.225 150.191 32.9667 150.057 32.8C149.941 32.6167 149.716 32.4917 149.382 32.425L149.032 32.35V32.1L153.607 30.625L153.857 30.875L153.782 34.425V41.425C153.782 41.7583 153.841 42.025 153.957 42.225C154.091 42.425 154.316 42.575 154.632 42.675L154.882 42.75V43H149.032ZM155.989 43V42.75L156.339 42.65C156.923 42.4833 157.214 42.075 157.214 41.425V33.6C157.214 33.2333 157.156 32.9667 157.039 32.8C156.923 32.6167 156.698 32.4917 156.364 32.425L155.989 32.325V32.075L160.264 30.625L160.514 30.875L160.714 32.375C161.298 31.8583 161.956 31.4333 162.689 31.1C163.423 30.7667 164.148 30.6 164.864 30.6C165.964 30.6 166.806 30.9 167.389 31.5C167.989 32.1 168.289 33.0167 168.289 34.25V41.45C168.289 42.1 168.606 42.5083 169.239 42.675L169.464 42.75V43H163.564V42.75L163.889 42.65C164.473 42.4667 164.764 42.0583 164.764 41.425V33.45C164.764 32.3833 164.231 31.85 163.164 31.85C162.431 31.85 161.631 32.2167 160.764 32.95V41.45C160.764 42.1 161.056 42.5083 161.639 42.675L161.864 42.75V43H155.989ZM175.892 38.675C174.742 38.675 173.767 38.4833 172.967 38.1V38.95C172.967 39.4667 173.226 39.775 173.742 39.875L178.442 40.75C179.226 40.9 179.934 41.1 180.567 41.35C181.201 41.5833 181.709 41.925 182.092 42.375C182.476 42.8083 182.667 43.4083 182.667 44.175C182.667 44.9917 182.401 45.7417 181.867 46.425C181.334 47.125 180.542 47.6833 179.492 48.1C178.459 48.5333 177.167 48.75 175.617 48.75C174.284 48.75 173.226 48.6083 172.442 48.325C171.659 48.0583 171.101 47.7083 170.767 47.275C170.451 46.8417 170.292 46.3833 170.292 45.9C170.292 45.3 170.492 44.6917 170.892 44.075C171.309 43.475 171.817 42.9917 172.417 42.625C171.901 42.425 171.526 42.1667 171.292 41.85C171.059 41.5333 170.942 41.1917 170.942 40.825C170.942 40.4917 171.026 40.1833 171.192 39.9C171.376 39.6 171.592 39.3 171.842 39L172.667 37.95C171.451 37.25 170.842 36.15 170.842 34.65C170.842 33.45 171.267 32.475 172.117 31.725C172.984 30.975 174.251 30.6 175.917 30.6C176.767 30.6 177.509 30.7 178.142 30.9C178.792 31.1 179.326 31.3833 179.742 31.75C180.276 31.6667 180.776 31.5333 181.242 31.35C181.726 31.15 182.159 30.8833 182.542 30.55L182.892 30.8V32.075H180.067C180.667 32.7417 180.967 33.6 180.967 34.65C180.967 35.8167 180.534 36.7833 179.667 37.55C178.817 38.3 177.559 38.675 175.892 38.675ZM175.867 38.175C176.534 38.175 177.017 37.9 177.317 37.35C177.634 36.8 177.792 35.8833 177.792 34.6C177.792 33.3167 177.634 32.4167 177.317 31.9C177.017 31.3667 176.551 31.1 175.917 31.1C175.301 31.1 174.834 31.375 174.517 31.925C174.201 32.4583 174.042 33.3667 174.042 34.65C174.042 35.9333 174.184 36.8417 174.467 37.375C174.767 37.9083 175.234 38.175 175.867 38.175ZM172.142 45.1C172.142 46.0833 172.442 46.825 173.042 47.325C173.659 47.825 174.626 48.075 175.942 48.075C177.326 48.075 178.367 47.85 179.067 47.4C179.767 46.95 180.117 46.3167 180.117 45.5C180.117 45.0333 179.942 44.6583 179.592 44.375C179.259 44.0917 178.684 43.875 177.867 43.725L173.342 42.875C173.209 42.8417 173.076 42.8083 172.942 42.775C172.709 43.1083 172.517 43.4833 172.367 43.9C172.217 44.3333 172.142 44.7333 172.142 45.1ZM197.818 43.45C196.201 43.45 194.735 43.125 193.418 42.475C192.118 41.8083 191.085 40.825 190.318 39.525C189.551 38.225 189.168 36.6333 189.168 34.75C189.168 33.3167 189.401 32.0583 189.868 30.975C190.335 29.8917 190.968 28.9833 191.768 28.25C192.585 27.5167 193.518 26.9667 194.568 26.6C195.635 26.2333 196.76 26.05 197.943 26.05C198.893 26.05 199.768 26.1583 200.568 26.375C201.368 26.5917 202.118 26.8917 202.818 27.275L202.918 30.35H202.668L201.418 28.35C201.251 28.0333 201.068 27.75 200.868 27.5C200.668 27.2333 200.418 27.0333 200.118 26.9C199.868 26.7833 199.618 26.7 199.368 26.65C199.135 26.5833 198.835 26.55 198.468 26.55C197.501 26.55 196.618 26.8083 195.818 27.325C195.035 27.8417 194.401 28.7 193.918 29.9C193.451 31.0833 193.218 32.7083 193.218 34.775C193.218 36.825 193.443 38.45 193.893 39.65C194.343 40.8333 194.951 41.6833 195.718 42.2C196.501 42.7 197.376 42.95 198.343 42.95C198.876 42.95 199.301 42.9167 199.618 42.85C199.935 42.7667 200.251 42.65 200.568 42.5C200.885 42.3667 201.126 42.175 201.293 41.925C201.46 41.6583 201.61 41.375 201.743 41.075L202.843 38.625H203.093L203.018 42.2C202.318 42.5667 201.535 42.8667 200.668 43.1C199.801 43.3333 198.851 43.45 197.818 43.45ZM207.881 43.375C206.915 43.375 206.098 43.1 205.431 42.55C204.781 42 204.456 41.2083 204.456 40.175C204.456 39.3917 204.856 38.675 205.656 38.025C206.456 37.3583 207.715 36.8583 209.431 36.525C209.698 36.475 209.998 36.425 210.331 36.375C210.665 36.3083 211.015 36.2417 211.381 36.175V34.2C211.381 33.0667 211.24 32.275 210.956 31.825C210.69 31.3583 210.265 31.125 209.681 31.125C209.281 31.125 208.965 31.2583 208.731 31.525C208.498 31.775 208.348 32.2167 208.281 32.85L208.231 33.125C208.198 33.8417 208.023 34.3667 207.706 34.7C207.39 35.0333 206.998 35.2 206.531 35.2C206.098 35.2 205.74 35.0667 205.456 34.8C205.173 34.5333 205.031 34.175 205.031 33.725C205.031 33.0417 205.265 32.4667 205.731 32C206.215 31.5333 206.848 31.1833 207.631 30.95C208.415 30.7167 209.265 30.6 210.181 30.6C211.665 30.6 212.806 30.9667 213.606 31.7C214.423 32.4167 214.831 33.5917 214.831 35.225V40.75C214.831 41.5 215.181 41.875 215.881 41.875H216.431L216.656 42.075C216.34 42.475 215.99 42.7833 215.606 43C215.24 43.2167 214.715 43.325 214.031 43.325C213.298 43.325 212.715 43.1583 212.281 42.825C211.865 42.475 211.59 42.0167 211.456 41.45C210.956 41.9833 210.44 42.4417 209.906 42.825C209.39 43.1917 208.715 43.375 207.881 43.375ZM209.406 41.85C209.74 41.85 210.048 41.775 210.331 41.625C210.631 41.4583 210.981 41.2083 211.381 40.875V36.675C211.215 36.7083 211.048 36.7417 210.881 36.775C210.715 36.8083 210.523 36.8417 210.306 36.875C209.54 37.075 208.923 37.4167 208.456 37.9C208.006 38.3667 207.781 39 207.781 39.8C207.781 40.4833 207.94 41 208.256 41.35C208.573 41.6833 208.956 41.85 209.406 41.85ZM217.122 43V42.75L217.497 42.65C217.83 42.55 218.055 42.4 218.172 42.2C218.305 42 218.372 41.7417 218.372 41.425V33.6C218.372 33.2333 218.305 32.9667 218.172 32.8C218.055 32.6167 217.83 32.4917 217.497 32.425L217.122 32.325V32.075L221.422 30.625L221.672 30.875L221.897 33.025V33.225C222.13 32.7583 222.43 32.3333 222.797 31.95C223.18 31.55 223.597 31.225 224.047 30.975C224.514 30.725 224.972 30.6 225.422 30.6C226.055 30.6 226.539 30.775 226.872 31.125C227.205 31.475 227.372 31.9167 227.372 32.45C227.372 33.0167 227.205 33.4583 226.872 33.775C226.555 34.075 226.172 34.225 225.722 34.225C225.022 34.225 224.405 33.875 223.872 33.175L223.822 33.125C223.655 32.8917 223.464 32.7667 223.247 32.75C223.03 32.7167 222.83 32.8167 222.647 33.05C222.48 33.2 222.339 33.3833 222.222 33.6C222.122 33.8 222.022 34.0333 221.922 34.3V41.275C221.922 41.9417 222.214 42.3583 222.797 42.525L223.597 42.75V43H217.122ZM233.127 43.375C232.06 43.375 231.227 43.1083 230.627 42.575C230.044 42.0417 229.752 41.1917 229.752 40.025V31.475H228.027V31.225L228.627 31.125C229.144 31.0083 229.585 30.8417 229.952 30.625C230.335 30.4083 230.71 30.1167 231.077 29.75L233.127 27.475H233.377L233.302 30.975H236.102V31.475H233.277V40.475C233.277 41.0583 233.402 41.5 233.652 41.8C233.919 42.1 234.252 42.25 234.652 42.25C235.002 42.25 235.31 42.1667 235.577 42C235.844 41.8167 236.11 41.575 236.377 41.275L236.627 41.525C236.294 42.0917 235.835 42.5417 235.252 42.875C234.669 43.2083 233.96 43.375 233.127 43.375Z" fill="black"/>
<g clip-path="url(#clip0_3108_857)">
<path d="M38.7461 56.1543C41.0275 56.1543 42.877 54.3048 42.877 52.0234C42.877 49.742 41.0275 47.8925 38.7461 47.8925C36.4647 47.8925 34.6152 49.742 34.6152 52.0234C34.6152 54.3048 36.4647 56.1543 38.7461 56.1543Z" fill="#05445E"/>
<path d="M52.6074 56.1543C54.8888 56.1543 56.7383 54.3048 56.7383 52.0234C56.7383 49.742 54.8888 47.8925 52.6074 47.8925C50.326 47.8925 48.4766 49.742 48.4766 52.0234C48.4766 54.3048 50.326 56.1543 52.6074 56.1543Z" fill="#05445E"/>
<path d="M19.3769 17.5998H25.1191L31.7668 40.8713L31.2454 41.9141C29.8725 44.657 31.8655 47.8926 34.9406 47.8926H58.115C58.8761 47.8926 59.4919 47.2767 59.4919 46.5156C59.4919 45.7545 58.8761 45.1387 58.115 45.1387H34.9406C33.918 45.1387 33.2498 44.062 33.7088 43.1459L34.0894 42.3848H58.115C58.7295 42.3848 59.2701 41.9774 59.4395 41.3857L64.9473 22.1084C65.0656 21.693 64.9823 21.2465 64.7228 20.901C64.4619 20.5567 64.0545 20.3537 63.6229 20.3537H28.7698L27.4816 15.8449C27.3122 15.2533 26.7717 14.8458 26.1571 14.8458H19.3769C18.6159 14.8458 18 15.4617 18 16.2227C18 16.9838 18.6159 17.5998 19.3769 17.5998V17.5998Z" fill="#05445E"/>
</g>
<defs>
<clipPath id="clip0_3108_857">
<rect width="47" height="47" fill="white" transform="translate(18 12)"/>
</clipPath>
</defs>
</svg>
